# xmcd
#
# Track frame offsets:
#	150
#	2575
#	26947
#	51287
#	74905
#	97860
#	119455
#	126705
#	150417
#	169710
#	194172
#	217262
#
# Disc length: 3212 seconds
#
# Revision: 1
# Processed by: cddbd v1.5.1PL0 Copyright (c) Steve Scherf et al.
# Submitted via: CDex 1.50Beta5
#
DISCID=b90c8a0c
DTITLE=beret - passage
DYEAR=2000
DGENRE=
TTITLE0=PASSAGE
TTITLE1=もっと
TTITLE2=愛の言葉(ready made 524 mix)
TTITLE3=楽園の月
TTITLE4=ここに居る理由
TTITLE5=暖かい場所
TTITLE6=PALETTE
TTITLE7=やさしい花びら(WHAT’S WORNG WITH GROOVE MIX)
TTITLE8=ドライブ
TTITLE9=てのひらに
TTITLE10=願い(walking rim mix)
TTITLE11=やさしい花びら(acoustic mix)
EXTD=
EXTT0=
EXTT1=
EXTT2=
EXTT3=
EXTT4=
EXTT5=
EXTT6=
EXTT7=
EXTT8=
EXTT9=
EXTT10=
EXTT11=
PLAYORDER=
